<svg xmlns="http://www.w3.org/2000/svg" xmlns:xlink="http://www.w3.org/1999/xlink" width="50" zoomAndPan="magnify" viewBox="0 0 37.5 38.999999" height="52" preserveAspectRatio="xMidYMid meet" version="1.0"><defs><clipPath id="3cd3d4660c"><path d="M 0 0.257812 L 37.007812 0.257812 L 37.007812 38.742188 L 0 38.742188 Z M 0 0.257812 " clip-rule="nonzero"/></clipPath><clipPath id="3dd3307045"><path d="M 0 0.257812 L 37.007812 0.257812 L 37.007812 38 L 0 38 Z M 0 0.257812 " clip-rule="nonzero"/></clipPath><clipPath id="4bfc416219"><path d="M 3 24 L 35 24 L 35 38.742188 L 3 38.742188 Z M 3 24 " clip-rule="nonzero"/></clipPath></defs><g clip-path="url(#3cd3d4660c)"><path fill="#ffffff" d="M 0 0.257812 L 37.5 0.257812 L 37.5 46.007812 L 0 46.007812 Z M 0 0.257812 " fill-opacity="1" fill-rule="nonzero"/><path fill="#ffffff" d="M 0 0.257812 L 37.5 0.257812 L 37.5 39.257812 L 0 39.257812 Z M 0 0.257812 " fill-opacity="1" fill-rule="nonzero"/><path fill="#ffffff" d="M 0 0.257812 L 37.5 0.257812 L 37.5 39.257812 L 0 39.257812 Z M 0 0.257812 " fill-opacity="1" fill-rule="nonzero"/></g><g clip-path="url(#3dd3307045)"><path fill="#ffffff" d="M 37.417969 19.023438 C 37.417969 19.636719 37.390625 20.25 37.328125 20.859375 C 37.269531 21.46875 37.179688 22.074219 37.058594 22.675781 C 36.941406 23.273438 36.792969 23.867188 36.613281 24.457031 C 36.4375 25.042969 36.230469 25.617188 35.996094 26.183594 C 35.761719 26.75 35.5 27.304688 35.210938 27.84375 C 34.921875 28.382812 34.605469 28.910156 34.265625 29.417969 C 33.925781 29.925781 33.5625 30.417969 33.171875 30.894531 C 32.785156 31.367188 32.371094 31.820312 31.941406 32.253906 C 31.507812 32.6875 31.054688 33.097656 30.578125 33.484375 C 30.105469 33.875 29.613281 34.238281 29.105469 34.578125 C 28.59375 34.921875 28.070312 35.234375 27.53125 35.523438 C 26.988281 35.8125 26.4375 36.074219 25.871094 36.308594 C 25.304688 36.542969 24.726562 36.75 24.140625 36.925781 C 23.554688 37.105469 22.960938 37.253906 22.359375 37.375 C 21.761719 37.492188 21.15625 37.582031 20.542969 37.640625 C 19.933594 37.703125 19.324219 37.734375 18.710938 37.734375 C 18.097656 37.734375 17.488281 37.703125 16.878906 37.640625 C 16.265625 37.582031 15.664062 37.492188 15.0625 37.375 C 14.460938 37.253906 13.867188 37.105469 13.28125 36.925781 C 12.695312 36.75 12.117188 36.542969 11.550781 36.308594 C 10.984375 36.074219 10.433594 35.8125 9.890625 35.523438 C 9.351562 35.234375 8.828125 34.921875 8.316406 34.578125 C 7.808594 34.238281 7.316406 33.875 6.84375 33.484375 C 6.367188 33.097656 5.914062 32.6875 5.484375 32.253906 C 5.050781 31.820312 4.636719 31.367188 4.25 30.894531 C 3.859375 30.417969 3.496094 29.925781 3.15625 29.417969 C 2.816406 28.910156 2.5 28.382812 2.210938 27.84375 C 1.921875 27.304688 1.660156 26.75 1.425781 26.183594 C 1.191406 25.617188 0.988281 25.042969 0.808594 24.457031 C 0.628906 23.867188 0.480469 23.273438 0.363281 22.675781 C 0.242188 22.074219 0.152344 21.46875 0.09375 20.859375 C 0.03125 20.25 0.00390625 19.636719 0.00390625 19.023438 C 0.00390625 18.410156 0.03125 17.800781 0.09375 17.191406 C 0.152344 16.582031 0.242188 15.976562 0.363281 15.375 C 0.480469 14.773438 0.628906 14.179688 0.808594 13.59375 C 0.988281 13.007812 1.191406 12.429688 1.425781 11.867188 C 1.660156 11.300781 1.921875 10.746094 2.210938 10.207031 C 2.5 9.664062 2.816406 9.140625 3.15625 8.632812 C 3.496094 8.121094 3.859375 7.628906 4.25 7.15625 C 4.636719 6.683594 5.050781 6.230469 5.484375 5.796875 C 5.914062 5.363281 6.367188 4.953125 6.84375 4.5625 C 7.316406 4.175781 7.808594 3.808594 8.316406 3.46875 C 8.828125 3.128906 9.351562 2.8125 9.890625 2.527344 C 10.433594 2.238281 10.984375 1.976562 11.550781 1.742188 C 12.117188 1.507812 12.695312 1.300781 13.28125 1.121094 C 13.867188 0.945312 14.460938 0.796875 15.0625 0.675781 C 15.664062 0.554688 16.265625 0.464844 16.878906 0.40625 C 17.488281 0.347656 18.097656 0.316406 18.710938 0.316406 C 19.324219 0.316406 19.933594 0.347656 20.542969 0.40625 C 21.15625 0.464844 21.761719 0.554688 22.359375 0.675781 C 22.960938 0.796875 23.554688 0.945312 24.140625 1.121094 C 24.726562 1.300781 25.304688 1.507812 25.871094 1.742188 C 26.4375 1.976562 26.988281 2.238281 27.53125 2.527344 C 28.070312 2.8125 28.59375 3.128906 29.105469 3.46875 C 29.613281 3.808594 30.105469 4.175781 30.578125 4.5625 C 31.054688 4.953125 31.507812 5.363281 31.941406 5.796875 C 32.371094 6.230469 32.785156 6.683594 33.171875 7.15625 C 33.5625 7.628906 33.925781 8.121094 34.265625 8.632812 C 34.605469 9.140625 34.921875 9.664062 35.210938 10.207031 C 35.5 10.746094 35.761719 11.300781 35.996094 11.867188 C 36.230469 12.429688 36.4375 13.007812 36.613281 13.59375 C 36.792969 14.179688 36.941406 14.773438 37.058594 15.375 C 37.179688 15.976562 37.269531 16.582031 37.328125 17.191406 C 37.390625 17.800781 37.417969 18.410156 37.417969 19.023438 Z M 37.417969 19.023438 " fill-opacity="1" fill-rule="nonzero"/></g><g clip-path="url(#4bfc416219)"><path fill="#02285b" d="M 34.125 30.007812 C 34.378906 30.511719 34.308594 31.117188 33.949219 31.550781 C 30.15625 36.054688 24.566406 38.644531 18.679688 38.628906 C 12.792969 38.613281 7.21875 35.988281 3.453125 31.460938 C 3.117188 31.054688 3.054688 30.484375 3.292969 30.011719 C 4.277344 28.039062 6.050781 26.578125 8.171875 25.980469 C 10.492188 25.335938 12.964844 24.855469 14.203125 24.632812 C 14.433594 24.589844 14.617188 24.558594 14.753906 24.535156 L 14.792969 24.53125 C 14.773438 24.546875 14.757812 24.566406 14.738281 24.585938 L 16.234375 25.753906 L 18.96875 27.898438 L 22.96875 24.585938 C 22.953125 24.574219 22.9375 24.558594 22.921875 24.542969 C 23.058594 24.566406 23.246094 24.597656 23.476562 24.644531 C 24.675781 24.867188 27.023438 25.335938 29.246094 25.96875 C 31.371094 26.570312 33.140625 28.035156 34.125 30.007812 Z M 34.125 30.007812 " fill-opacity="1" fill-rule="nonzero"/></g><path fill="#02285b" d="M 23.21875 24.324219 C 22.691406 23.808594 22.363281 22.355469 22.21875 21.078125 C 22.203125 20.960938 22.191406 20.84375 22.183594 20.726562 C 21.960938 20.882812 21.726562 21.019531 21.484375 21.140625 C 21.488281 21.199219 21.496094 21.257812 21.503906 21.320312 C 21.511719 21.382812 21.519531 21.429688 21.523438 21.484375 L 21.546875 21.628906 C 21.679688 22.558594 21.941406 23.792969 22.445312 24.535156 L 18.957031 27.417969 L 16.339844 25.378906 L 15.253906 24.53125 C 15.800781 23.722656 16.058594 22.335938 16.183594 21.390625 C 16.195312 21.285156 16.207031 21.1875 16.21875 21.09375 L 16.222656 21.046875 C 15.976562 20.914062 15.746094 20.765625 15.523438 20.597656 C 15.515625 20.710938 15.503906 20.828125 15.492188 20.945312 C 15.355469 22.257812 15.023438 23.789062 14.476562 24.324219 L 14.171875 24.617188 L 14.195312 24.632812 L 16.066406 26.097656 L 16.117188 26.136719 L 18.96875 28.371094 L 23.472656 24.644531 L 23.511719 24.613281 Z M 23.21875 24.324219 " fill-opacity="1" fill-rule="nonzero"/><path fill="#02285b" d="M 21.902344 21.164062 C 21.902344 21.164062 20.492188 23.609375 16.941406 23.304688 L 16.117188 26.152344 L 14.734375 24.589844 L 15.839844 20.949219 C 15.839844 20.949219 19.175781 22.417969 21.902344 21.164062 Z M 21.902344 21.164062 " fill-opacity="1" fill-rule="nonzero"/><path fill="#02285b" d="M 25.632812 13.761719 L 24.738281 17.492188 L 24.617188 11.695312 L 23.3125 9.835938 C 21.925781 10.011719 20.53125 10.101562 19.132812 10.097656 C 17.738281 10.101562 16.339844 10.011719 14.953125 9.835938 L 13.28125 11.695312 L 13.183594 17.582031 L 12.230469 13.804688 C 11.824219 12.074219 11.867188 10.269531 12.351562 8.5625 C 12.742188 7.210938 13.445312 5.835938 14.71875 5.070312 C 15.117188 4.835938 15.492188 4.636719 15.847656 4.460938 C 16.328125 4.226562 16.828125 4.050781 17.347656 3.9375 C 17.863281 3.820312 18.390625 3.761719 18.917969 3.761719 C 19.980469 3.757812 21.03125 4 21.988281 4.460938 C 22.339844 4.636719 22.71875 4.835938 23.117188 5.070312 C 24.453125 5.871094 25.164062 7.351562 25.539062 8.761719 C 25.964844 10.398438 26 12.113281 25.632812 13.761719 Z M 25.632812 13.761719 " fill-opacity="1" fill-rule="nonzero"/><path fill="#02285b" d="M 23.484375 8.609375 L 23.261719 8.640625 C 20.523438 9.015625 17.742188 9.015625 15 8.640625 L 14.808594 8.613281 L 12.910156 10.859375 L 12.910156 16.378906 C 12.910156 16.398438 12.925781 16.523438 12.964844 16.726562 C 13.019531 17.015625 13.089844 17.300781 13.179688 17.578125 C 13.347656 18.109375 13.570312 18.617188 13.851562 19.097656 C 14.269531 19.816406 14.824219 20.445312 15.492188 20.945312 C 15.582031 21.015625 15.675781 21.082031 15.777344 21.148438 C 15.90625 21.234375 16.039062 21.3125 16.179688 21.390625 C 17.015625 21.839844 17.9375 22.109375 18.882812 22.183594 L 19.003906 22.183594 C 19.878906 22.113281 20.734375 21.875 21.523438 21.484375 C 21.613281 21.441406 21.6875 21.394531 21.769531 21.351562 C 21.925781 21.265625 22.074219 21.171875 22.214844 21.074219 C 22.960938 20.558594 23.582031 19.882812 24.039062 19.101562 C 24.335938 18.59375 24.570312 18.050781 24.738281 17.488281 C 24.820312 17.21875 24.886719 16.945312 24.933594 16.667969 C 24.964844 16.5 24.976562 16.398438 24.976562 16.382812 L 24.984375 10.890625 Z M 24.242188 16.316406 C 24.121094 17.152344 23.839844 17.957031 23.414062 18.683594 C 22.464844 20.300781 20.964844 21.21875 18.957031 21.402344 L 18.929688 21.402344 C 14.265625 20.972656 13.683594 16.683594 13.644531 16.320312 L 13.644531 13.269531 C 13.644531 11.832031 14.410156 10.523438 15.59375 9.910156 C 15.75 9.828125 15.914062 9.761719 16.082031 9.707031 C 16.28125 9.632812 16.492188 9.601562 16.699219 9.609375 C 18.234375 9.730469 19.777344 9.734375 21.3125 9.625 C 21.535156 9.617188 21.753906 9.648438 21.964844 9.71875 C 22.140625 9.773438 22.3125 9.84375 22.472656 9.929688 C 23.550781 10.5 24.246094 11.703125 24.246094 13.019531 Z M 24.242188 16.316406 " fill-opacity="1" fill-rule="nonzero"/></svg>